<svg xmlns="http://www.w3.org/2000/svg" viewBox="0 0 400 320" role="img" aria-label="AI Engineering Workspace concept visual">
  <defs>
    <linearGradient id="bg" x1="0" y1="0" x2="1" y2="1"><stop offset="0" stop-color="#06b6d4"/><stop offset="1" stop-color="#9333ea"/></linearGradient>
    <filter id="blur"><feGaussianBlur stdDeviation="20"/></filter>
  </defs>
  <rect width="400" height="320" rx="30" fill="#050b16"/>
  <circle cx="60" cy="48" r="96" fill="#06b6d4" opacity="0.2" filter="url(#blur)"/>
  <circle cx="350" cy="116" r="120" fill="#9333ea" opacity="0.2" filter="url(#blur)"/>
  <path d="M0 272 C76 238 143 286 220 250 C287 219 326 204 400 228 V320 H0 Z" fill="url(#bg)" opacity="0.12"/>
  <g transform="translate(68,58)">
      <circle cx="132" cy="126" r="80" fill="#061225" stroke="#00d4ff" stroke-opacity="0.28"/>
      <g stroke="#7af0ff" stroke-width="2" opacity="0.6">
        <path d="M132 47 L75 92 L96 162 L168 162 L189 92 Z"/><path d="M75 92 H189 M96 162 L132 47 M168 162 L132 47 M96 162 L189 92 M168 162 L75 92"/>
      </g>
      <g fill="#00d4ff"><circle cx="132" cy="47" r="7"/><circle cx="75" cy="92" r="7"/><circle cx="189" cy="92" r="7"/><circle cx="96" cy="162" r="7"/><circle cx="168" cy="162" r="7"/></g>
      <rect x="36" y="224" width="192" height="34" rx="17" fill="#0d1b2f"/><path d="M62 241 H204" stroke="#6d28d9" stroke-width="6" stroke-linecap="round" opacity="0.7"/>
    </g>
  <text x="26" y="292" fill="#ffffff" font-family="Inter, Arial, sans-serif" font-size="16" font-weight="700">AI Engineering Workspace</text>
  <text x="26" y="310" fill="#95eaff" font-family="Inter, Arial, sans-serif" font-size="10" letter-spacing="1.2">CONCEPT AI OPERATIONS VISUAL</text>
</svg>