<svg xmlns="http://www.w3.org/2000/svg" viewBox="0 0 400 320" role="img" aria-label="Cloud and Automation Operations concept visual">
  <defs>
    <linearGradient id="bg" x1="0" y1="0" x2="1" y2="1"><stop offset="0" stop-color="#0ea5e9"/><stop offset="1" stop-color="#6d28d9"/></linearGradient>
    <filter id="blur"><feGaussianBlur stdDeviation="20"/></filter>
  </defs>
  <rect width="400" height="320" rx="30" fill="#050b16"/>
  <circle cx="60" cy="48" r="96" fill="#0ea5e9" opacity="0.2" filter="url(#blur)"/>
  <circle cx="350" cy="116" r="120" fill="#6d28d9" opacity="0.2" filter="url(#blur)"/>
  <path d="M0 272 C76 238 143 286 220 250 C287 219 326 204 400 228 V320 H0 Z" fill="url(#bg)" opacity="0.12"/>
  <g transform="translate(42,72)">
      <rect x="0" y="0" width="320" height="196" rx="22" fill="#081220" stroke="#ffffff" stroke-opacity="0.1"/>
      <path d="M108 120 C88 118 76 106 76 88 C76 70 90 56 108 56 C117 34 140 24 162 32 C179 22 204 27 217 45 C241 46 260 65 260 88 C260 111 242 124 220 124 H108 Z" fill="#0d1c32" stroke="#00d4ff" stroke-opacity="0.45" stroke-width="2"/>
      <g stroke="#7af0ff" stroke-width="2" opacity="0.75"><path d="M160 126 V160 M112 160 H250 M112 160 V178 M180 160 V178 M250 160 V178"/></g>
      <g fill="#00d4ff"><circle cx="112" cy="178" r="9"/><circle cx="180" cy="178" r="9"/><circle cx="250" cy="178" r="9"/><circle cx="160" cy="126" r="8"/></g>
      <path d="M132 84 H198 M144 103 H186" stroke="#8b5cf6" stroke-width="6" stroke-linecap="round" opacity="0.75"/>
    </g>
  <text x="26" y="292" fill="#ffffff" font-family="Inter, Arial, sans-serif" font-size="16" font-weight="700">Cloud and Automation Operations</text>
  <text x="26" y="310" fill="#95eaff" font-family="Inter, Arial, sans-serif" font-size="10" letter-spacing="1.2">CONCEPT INFRASTRUCTURE VISUAL</text>
</svg>