<svg xmlns="http://www.w3.org/2000/svg" viewBox="0 0 400 320" role="img" aria-label="Collaborative Software Team concept visual">
  <defs>
    <linearGradient id="bg" x1="0" y1="0" x2="1" y2="1"><stop offset="0" stop-color="#38bdf8"/><stop offset="1" stop-color="#7c3aed"/></linearGradient>
    <filter id="blur"><feGaussianBlur stdDeviation="20"/></filter>
  </defs>
  <rect width="400" height="320" rx="30" fill="#050b16"/>
  <circle cx="60" cy="48" r="96" fill="#38bdf8" opacity="0.2" filter="url(#blur)"/>
  <circle cx="350" cy="116" r="120" fill="#7c3aed" opacity="0.2" filter="url(#blur)"/>
  <path d="M0 272 C76 238 143 286 220 250 C287 219 326 204 400 228 V320 H0 Z" fill="url(#bg)" opacity="0.12"/>
  <g transform="translate(46,70)">
      <rect x="0" y="0" width="308" height="202" rx="20" fill="#081220" stroke="#6d28d9" stroke-opacity="0.22"/>
      <g transform="translate(18,30)">
        <circle cx="42" cy="40" r="22" fill="#f0b995"/><circle cx="126" cy="38" r="22" fill="#c98f70"/><circle cx="210" cy="40" r="22" fill="#e7b18c"/>
        <path d="M12 108 C18 74 66 74 72 108 Z" fill="#183249"/><path d="M96 108 C102 72 150 72 156 108 Z" fill="#2b2550"/><path d="M180 108 C186 74 234 74 240 108 Z" fill="#16313f"/>
        <rect x="28" y="126" width="212" height="36" rx="18" fill="#0e1c31"/><path d="M54 144 H216" stroke="#00d4ff" stroke-width="7" stroke-linecap="round" opacity="0.58"/>
      </g>
    </g>
  <text x="26" y="292" fill="#ffffff" font-family="Inter, Arial, sans-serif" font-size="16" font-weight="700">Collaborative Software Team</text>
  <text x="26" y="310" fill="#95eaff" font-family="Inter, Arial, sans-serif" font-size="10" letter-spacing="1.2">GLOBAL DELIVERY TEAM</text>
</svg>