<svg xmlns="http://www.w3.org/2000/svg" viewBox="0 0 400 320" role="img" aria-label="Dashboard Monitoring Room concept visual">
  <defs>
    <linearGradient id="bg" x1="0" y1="0" x2="1" y2="1"><stop offset="0" stop-color="#00d4ff"/><stop offset="1" stop-color="#2563eb"/></linearGradient>
    <filter id="blur"><feGaussianBlur stdDeviation="20"/></filter>
  </defs>
  <rect width="400" height="320" rx="30" fill="#050b16"/>
  <circle cx="60" cy="48" r="96" fill="#00d4ff" opacity="0.2" filter="url(#blur)"/>
  <circle cx="350" cy="116" r="120" fill="#2563eb" opacity="0.2" filter="url(#blur)"/>
  <path d="M0 272 C76 238 143 286 220 250 C287 219 326 204 400 228 V320 H0 Z" fill="url(#bg)" opacity="0.12"/>
  <g transform="translate(46,70)">
      <rect x="0" y="0" width="308" height="202" rx="20" fill="#081220" stroke="#00d4ff" stroke-opacity="0.18"/>
      <rect x="22" y="24" width="80" height="52" rx="12" fill="#00d4ff" opacity="0.17"/><rect x="114" y="24" width="80" height="52" rx="12" fill="#6d28d9" opacity="0.2"/><rect x="206" y="24" width="80" height="52" rx="12" fill="#2563eb" opacity="0.22"/>
      <polyline points="26,154 70,126 112,139 154,96 196,112 242,78 288,92" fill="none" stroke="#00d4ff" stroke-width="5" stroke-linecap="round" stroke-linejoin="round"/>
      <polyline points="26,176 76,160 128,166 176,132 236,146 288,126" fill="none" stroke="#8b5cf6" stroke-width="4" stroke-linecap="round" opacity="0.65"/>
      <circle cx="242" cy="78" r="7" fill="#fff"/>
    </g>
  <text x="26" y="292" fill="#ffffff" font-family="Inter, Arial, sans-serif" font-size="16" font-weight="700">Dashboard Monitoring Room</text>
  <text x="26" y="310" fill="#95eaff" font-family="Inter, Arial, sans-serif" font-size="10" letter-spacing="1.2">CONCEPT OPERATIONS VISUAL</text>
</svg>