<svg xmlns="http://www.w3.org/2000/svg" viewBox="0 0 360 420" role="img" aria-label="Fictional placeholder portrait of David Anderson">
  <defs>
    <linearGradient id="bg" x1="0" y1="0" x2="1" y2="1"><stop offset="0" stop-color="#2563eb"/><stop offset="1" stop-color="#22d3ee"/></linearGradient>
    <linearGradient id="glow" x1="0" y1="0" x2="1" y2="1"><stop offset="0" stop-color="#ffffff" stop-opacity="0.38"/><stop offset="1" stop-color="#ffffff" stop-opacity="0.02"/></linearGradient>
    <filter id="blur"><feGaussianBlur stdDeviation="18"/></filter>
  </defs>
  <rect width="360" height="420" rx="36" fill="#050b16"/>
  <circle cx="70" cy="54" r="92" fill="#2563eb" opacity="0.22" filter="url(#blur)"/>
  <circle cx="314" cy="128" r="118" fill="#22d3ee" opacity="0.24" filter="url(#blur)"/>
  <path d="M0 325 C82 290 140 342 214 313 C278 287 303 243 360 266 V420 H0 Z" fill="url(#bg)" opacity="0.23"/>
  <g opacity="0.28" stroke="#fff" stroke-width="1">
    <path d="M40 74 H320"/><path d="M54 116 H306"/><path d="M74 354 H286"/>
    <circle cx="294" cy="72" r="3" fill="#fff"/><circle cx="54" cy="168" r="2" fill="#fff"/><circle cx="306" cy="240" r="2" fill="#fff"/>
  </g>
  <g transform="translate(0,8)">
    <path d="M87 365 C95 286 122 245 180 245 C238 245 267 286 274 365 Z" fill="#24364f"/>
    <path d="M134 258 L180 332 L226 258 C209 248 196 244 180 244 C163 244 149 248 134 258 Z" fill="#101827" opacity="0.88"/>
    <path d="M155 255 L180 305 L205 255" fill="none" stroke="#2563eb" stroke-width="5" opacity="0.7"/>
    <path d="M116 150 C118 112 143 91 178 90 C213 90 238 114 239 151 C224 134 205 125 180 126 C148 126 132 136 116 150 Z" fill="#202027"/>
    <ellipse cx="180" cy="174" rx="61" ry="72" fill="#d9a57f"/>
    <path d="M122 167 C126 127 147 109 180 111 C214 113 235 133 239 169 C218 157 205 146 184 146 C158 146 140 158 122 167 Z" fill="#202027"/>
    <ellipse cx="117" cy="186" rx="12" ry="20" fill="#d9a57f"/><ellipse cx="243" cy="186" rx="12" ry="20" fill="#d9a57f"/>
    <path d="M154 187 C160 182 166 182 172 187" stroke="#171b25" stroke-width="4" fill="none" stroke-linecap="round"/>
    <path d="M188 187 C195 182 202 182 208 187" stroke="#171b25" stroke-width="4" fill="none" stroke-linecap="round"/>
    <path d="M180 192 C176 207 176 211 184 216" stroke="#8b604a" stroke-width="3" fill="none" stroke-linecap="round" opacity="0.6"/>
    <path d="M160 231 C174 242 192 242 206 231" stroke="#7d3d3d" stroke-width="4" fill="none" stroke-linecap="round" opacity="0.72"/>
  </g>
  <rect x="24" y="24" width="312" height="372" rx="28" fill="url(#glow)" opacity="0.24"/>
  <text x="180" y="382" text-anchor="middle" fill="#ffffff" font-family="Inter, Arial, sans-serif" font-size="18" font-weight="700">David Anderson</text>
  <text x="180" y="404" text-anchor="middle" fill="#9bdcff" font-family="Inter, Arial, sans-serif" font-size="12" letter-spacing="1.4">FICTIONAL CFO</text>
</svg>