<svg xmlns="http://www.w3.org/2000/svg" viewBox="0 0 400 320" role="img" aria-label="Developers Working concept visual">
  <defs>
    <linearGradient id="bg" x1="0" y1="0" x2="1" y2="1"><stop offset="0" stop-color="#22d3ee"/><stop offset="1" stop-color="#8b5cf6"/></linearGradient>
    <filter id="blur"><feGaussianBlur stdDeviation="20"/></filter>
  </defs>
  <rect width="400" height="320" rx="30" fill="#050b16"/>
  <circle cx="60" cy="48" r="96" fill="#22d3ee" opacity="0.2" filter="url(#blur)"/>
  <circle cx="350" cy="116" r="120" fill="#8b5cf6" opacity="0.2" filter="url(#blur)"/>
  <path d="M0 272 C76 238 143 286 220 250 C287 219 326 204 400 228 V320 H0 Z" fill="url(#bg)" opacity="0.12"/>
  <g transform="translate(42,84)">
      <rect x="0" y="0" width="320" height="176" rx="22" fill="#081220" stroke="#00d4ff" stroke-opacity="0.14"/>
      <g>
        <rect x="34" y="58" width="90" height="58" rx="8" fill="#0d1b2f" stroke="#00d4ff" stroke-opacity="0.3"/><rect x="196" y="58" width="90" height="58" rx="8" fill="#0d1b2f" stroke="#6d28d9" stroke-opacity="0.3"/>
        <path d="M52 78 H92 M52 94 H108 M214 78 H262 M214 94 H244" stroke="#7af0ff" stroke-width="4" stroke-linecap="round" opacity="0.5"/>
        <circle cx="80" cy="140" r="22" fill="#e0a987"/><circle cx="238" cy="140" r="22" fill="#f1c3a2"/>
        <path d="M45 174 C50 145 62 134 80 134 C100 134 112 146 118 174" fill="#183249"/><path d="M204 174 C209 145 221 134 239 134 C259 134 271 146 277 174" fill="#2b2550"/>
      </g>
    </g>
  <text x="26" y="292" fill="#ffffff" font-family="Inter, Arial, sans-serif" font-size="16" font-weight="700">Developers Working</text>
  <text x="26" y="310" fill="#95eaff" font-family="Inter, Arial, sans-serif" font-size="10" letter-spacing="1.2">GLOBAL DELIVERY TEAM</text>
</svg>