<svg xmlns="http://www.w3.org/2000/svg" viewBox="0 0 400 320" role="img" aria-label="Strategy Meeting Room concept visual">
  <defs>
    <linearGradient id="bg" x1="0" y1="0" x2="1" y2="1"><stop offset="0" stop-color="#2563eb"/><stop offset="1" stop-color="#a855f7"/></linearGradient>
    <filter id="blur"><feGaussianBlur stdDeviation="20"/></filter>
  </defs>
  <rect width="400" height="320" rx="30" fill="#050b16"/>
  <circle cx="60" cy="48" r="96" fill="#2563eb" opacity="0.2" filter="url(#blur)"/>
  <circle cx="350" cy="116" r="120" fill="#a855f7" opacity="0.2" filter="url(#blur)"/>
  <path d="M0 272 C76 238 143 286 220 250 C287 219 326 204 400 228 V320 H0 Z" fill="url(#bg)" opacity="0.12"/>
  <g transform="translate(52,76)">
      <rect x="18" y="20" width="264" height="166" rx="22" fill="#081220" stroke="#fff" stroke-opacity="0.1"/>
      <ellipse cx="150" cy="128" rx="98" ry="34" fill="#101b30" stroke="#00d4ff" stroke-opacity="0.2"/>
      <rect x="86" y="42" width="128" height="50" rx="10" fill="#0d1c32" stroke="#6d28d9" stroke-opacity="0.34"/><path d="M105 66 H195" stroke="#00d4ff" stroke-width="5" opacity="0.5"/>
      <circle cx="82" cy="126" r="18" fill="#e6b08e"/><circle cx="132" cy="112" r="18" fill="#c78b6f"/><circle cx="184" cy="112" r="18" fill="#f0c09b"/><circle cx="226" cy="126" r="18" fill="#d7a17e"/>
      <path d="M58 186 C66 151 96 151 106 186 M108 178 C116 143 148 143 158 178 M162 178 C170 143 202 143 212 178 M204 186 C212 151 242 151 252 186" fill="#1a2843" opacity="0.95"/>
    </g>
  <text x="26" y="292" fill="#ffffff" font-family="Inter, Arial, sans-serif" font-size="16" font-weight="700">Strategy Meeting Room</text>
  <text x="26" y="310" fill="#95eaff" font-family="Inter, Arial, sans-serif" font-size="10" letter-spacing="1.2">CONCEPT WORKSPACE VISUAL</text>
</svg>