<svg xmlns="http://www.w3.org/2000/svg" viewBox="0 0 400 320" role="img" aria-label="Modern Digital Delivery Environment concept visual">
  <defs>
    <linearGradient id="bg" x1="0" y1="0" x2="1" y2="1"><stop offset="0" stop-color="#0ea5e9"/><stop offset="1" stop-color="#7c3aed"/></linearGradient>
    <filter id="blur"><feGaussianBlur stdDeviation="20"/></filter>
  </defs>
  <rect width="400" height="320" rx="30" fill="#050b16"/>
  <circle cx="60" cy="48" r="96" fill="#0ea5e9" opacity="0.2" filter="url(#blur)"/>
  <circle cx="350" cy="116" r="120" fill="#7c3aed" opacity="0.2" filter="url(#blur)"/>
  <path d="M0 272 C76 238 143 286 220 250 C287 219 326 204 400 228 V320 H0 Z" fill="url(#bg)" opacity="0.12"/>
  <g transform="translate(52,84)">
      <rect x="0" y="0" width="300" height="170" rx="18" fill="#081220" stroke="#ffffff" stroke-opacity="0.1"/>
      <path d="M0 120 H300" stroke="#00d4ff" stroke-opacity="0.18"/>
      <rect x="24" y="24" width="68" height="44" rx="8" fill="#00d4ff" opacity="0.2"/><rect x="112" y="24" width="68" height="44" rx="8" fill="#6d28d9" opacity="0.24"/><rect x="200" y="24" width="68" height="44" rx="8" fill="#2563eb" opacity="0.26"/>
      <rect x="36" y="90" width="228" height="18" rx="9" fill="#172033"/><rect x="52" y="108" width="58" height="46" rx="8" fill="#0f1b2e"/><rect x="130" y="108" width="58" height="46" rx="8" fill="#0f1b2e"/><rect x="208" y="108" width="42" height="46" rx="8" fill="#0f1b2e"/>
      <circle cx="80" cy="116" r="12" fill="#e2b394"/><circle cx="158" cy="116" r="12" fill="#c98f70"/><circle cx="229" cy="116" r="12" fill="#f0b995"/>
    </g>
  <text x="26" y="292" fill="#ffffff" font-family="Inter, Arial, sans-serif" font-size="16" font-weight="700">Modern Digital Delivery Environment</text>
  <text x="26" y="310" fill="#95eaff" font-family="Inter, Arial, sans-serif" font-size="10" letter-spacing="1.2">CONCEPT WORKSPACE VISUAL</text>
</svg>