<svg xmlns="http://www.w3.org/2000/svg" viewBox="0 0 400 320" role="img" aria-label="San Francisco Presence concept visual">
  <defs>
    <linearGradient id="bg" x1="0" y1="0" x2="1" y2="1"><stop offset="0" stop-color="#00d4ff"/><stop offset="1" stop-color="#6d28d9"/></linearGradient>
    <filter id="blur"><feGaussianBlur stdDeviation="20"/></filter>
  </defs>
  <rect width="400" height="320" rx="30" fill="#050b16"/>
  <circle cx="60" cy="48" r="96" fill="#00d4ff" opacity="0.2" filter="url(#blur)"/>
  <circle cx="350" cy="116" r="120" fill="#6d28d9" opacity="0.2" filter="url(#blur)"/>
  <path d="M0 272 C76 238 143 286 220 250 C287 219 326 204 400 228 V320 H0 Z" fill="url(#bg)" opacity="0.12"/>
  <g transform="translate(78,66)">
      <rect x="42" y="30" width="164" height="214" rx="10" fill="#0b1729" stroke="#48e1ff" stroke-opacity="0.35"/>
      <path d="M58 52 H190 M58 83 H190 M58 114 H190 M58 145 H190 M58 176 H190 M58 207 H190" stroke="#5ee7ff" stroke-opacity="0.25"/>
      <g fill="#00d4ff" opacity="0.58">
        <rect x="72" y="66" width="22" height="18" rx="3"/><rect x="112" y="66" width="22" height="18" rx="3"/><rect x="152" y="66" width="22" height="18" rx="3"/>
        <rect x="72" y="102" width="22" height="18" rx="3"/><rect x="112" y="102" width="22" height="18" rx="3"/><rect x="152" y="102" width="22" height="18" rx="3"/>
        <rect x="72" y="138" width="22" height="18" rx="3"/><rect x="112" y="138" width="22" height="18" rx="3"/><rect x="152" y="138" width="22" height="18" rx="3"/>
        <rect x="72" y="174" width="22" height="18" rx="3"/><rect x="112" y="174" width="22" height="18" rx="3"/><rect x="152" y="174" width="22" height="18" rx="3"/>
      </g>
      <rect x="96" y="218" width="56" height="26" rx="4" fill="#111c2f" stroke="#fff" stroke-opacity="0.22"/>
      <path d="M0 246 H260" stroke="#93f7ff" stroke-opacity="0.35"/>
      <path d="M14 246 C35 225 49 215 70 214" stroke="#6d28d9" stroke-width="3" opacity="0.6"/>
      <path d="M208 244 C230 221 245 212 266 211" stroke="#00d4ff" stroke-width="3" opacity="0.6"/>
    </g>
  <text x="26" y="292" fill="#ffffff" font-family="Inter, Arial, sans-serif" font-size="16" font-weight="700">San Francisco Presence</text>
  <text x="26" y="310" fill="#95eaff" font-family="Inter, Arial, sans-serif" font-size="10" letter-spacing="1.2">EXTERIOR CONCEPT VISUAL</text>
</svg>